{"title":"The.Legend.Of.Korra.S02E02.1080p.WEB-DL.H264-PublicHD","uid":8917066,"size":984939784,"categoryP":"video","categoryS":"hd___tv_shows","magnet":"?xt=urn:btih:1a5e6e6958da2e60ff747e361f997bebf2901bb7&amp;dn=The.Legend.Of.Korra.S02E02.1080p.WEB-DL.H264-PublicHD&amp;tr=udp%3A%2F%2Ftracker.openbittorrent.com%3A80&amp;tr=udp%3A%2F%2Fopen.demonii.com%3A1337&amp;tr=udp%3A%2F%2Ftracker.coppersurfer.tk%3A6969&amp;tr=udp%3A%2F%2Fexodus.desync.com%3A6969","seeders":1,"leechers":0,"uploader":"DibyaTPB","files":2,"time":1379167545,"description":"                PublicHD - High-Definition Bittorrent Community\n      \n                           \n    \n              ----------------------------------------------------\n\nGeneral\nUnique ID                                : 204146139429147740844547778715197717717 (0x99951DC58F2A39468B9B2F4336113CD5)\nComplete name                            : C:dumpThe.Legend.Of.Korra.S02E02.1080p.WEB-DL.H264-PublicHD.mkv\nFormat                                   : Matroska\nFormat version                           : Version 2\nFile size                                : 939 MiB\nDuration                                 : 23mn 42s\nOverall bit rate                         : 5 540 Kbps\nEncoded date                             : UTC 2013-09-14 11:56:34\nWriting application                      : mkvmerge v5.8.0 ('No Sleep / Pillow') built on Sep  2 2012 15:37:04\nWriting library                          : libebml v1.2.3 + libmatroska v1.3.0\n\nVideo\nID                                       : 1\nFormat                                   : AVC\nFormat/Info                              : Advanced Video Codec\nFormat profile                           : &lt;a class=&quot;__cf_email__&quot; href=&quot;/cdn-cgi/l/email-protection&quot; data-cfemail=&quot;642c0d030c2428504a54&quot;&gt;[email&amp;#160;protected]&lt;/a&gt;&lt;script cf-hash='f9e31' type=&quot;text/javascript&quot;&gt;\n/* &lt;![CDATA[ */!function(){try{var t=&quot;currentScript&quot;in document?document.currentScript:function(){for(var t=document.getElementsByTagName(&quot;script&quot;),e=t.length;e--;)if(t[e].getAttribute(&quot;cf-hash&quot;))return t[e]}();if(t&amp;&amp;t.previousSibling){var e,r,n,i,c=t.previousSibling,a=c.getAttribute(&quot;data-cfemail&quot;);if(a){for(e=&quot;&quot;,r=parseInt(a.substr(0,2),16),n=2;a.length-n;n+=2)i=parseInt(a.substr(n,2),16)^r,e+=String.fromCharCode(i);e=document.createTextNode(e),c.parentNode.replaceChild(e,c)}}}catch(u){}}();/* ]]&gt; */&lt;/script&gt;\nFormat settings, CABAC                   : Yes\nFormat settings, ReFrames                : 4 frames\nCodec ID                                 : V_MPEG4/ISO/AVC\nDuration                                 : 23mn 42s\nBit rate                                 : 5 046 Kbps\nWidth                                    : 1 916 pixels\nHeight                                   : 1 076 pixels\nDisplay aspect ratio                     : 16:9\nFrame rate                               : 23.976 fps\nColor space                              : YUV\nChroma subsampling                       : 4:2:0\nBit depth                                : 8 bits\nScan type                                : Progressive\nBits/(Pixel*Frame)                       : 0.102\nStream size                              : 856 MiB (91%)\nLanguage                                 : English\nDefault                                  : Yes\nForced                                   : No\nColor primaries                          : BT.709-5, BT.1361, IEC 61966-2-4, SMPTE RP177\nTransfer characteristics                 : BT.709-5, BT.1361\nMatrix coefficients                      : BT.709-5, BT.1361, IEC 61966-2-4 709, SMPTE RP177\n\nAudio\nID                                       : 2\nFormat                                   : AC-3\nFormat/Info                              : Audio Coding 3\nMode extension                           : CM (complete main)\nFormat settings, Endianness              : Big\nCodec ID                                 : A_AC3\nDuration                                 : 23mn 42s\nBit rate mode                            : Constant\nBit rate                                 : 384 Kbps\nChannel(s)                               : 6 channels\nChannel positions                        : Front: L C R, Side: L R, LFE\nSampling rate                            : 48.0 KHz\nBit depth                                : 16 bits\nCompression mode                         : Lossy\nStream size                              : 65.1 MiB (7%)\nLanguage                                 : English\nDefault                                  : Yes\nForced                                   : No\n\nText\nID                                       : 3\nFormat                                   : UTF-8\nCodec ID                                 : S_TEXT/UTF8\nCodec ID/Info                            : UTF-8 Plain Text\nLanguage                                 : English\nDefault                                  : No\nForced                                   : No\n\n","torrent":{"xt":"urn:btih:1a5e6e6958da2e60ff747e361f997bebf2901bb7","amp;dn":"The.Legend.Of.Korra.S02E02.1080p.WEB-DL.H264-PublicHD","amp;tr":["udp%3A%2F%2Ftracker.openbittorrent.com%3A80","udp%3A%2F%2Fopen.demonii.com%3A1337","udp%3A%2F%2Ftracker.coppersurfer.tk%3A6969","udp%3A%2F%2Fexodus.desync.com%3A6969"],"infoHash":"1a5e6e6958da2e60ff747e361f997bebf2901bb7","infoHashBuffer":{"type":"Buffer","data":[26,94,110,105,88,218,46,96,255,116,126,54,31,153,123,235,242,144,27,183]},"announce":[],"urlList":[]}}